ply
format ascii 1.0
element vertex 755
property float32 x
property float32 y
property float32 z
end_header
5.3099 2.1994 -1.0134
5.3099 2.1994 -0.8805
5.3099 2.1994 -0.7484
5.3099 2.1994 -0.6172
5.3099 2.1994 -0.4865
5.3099 2.1994 -0.3564
5.3099 2.1994 -0.2266
5.3099 2.1994 -0.0971
5.3099 2.1994 0.0324
5.3099 2.1994 0.1618
5.2210 2.3843 0.1616
5.2512 2.6286 0.1654
5.3099 2.1994 0.2915
5.2210 2.3843 0.2911
5.3099 2.1994 0.4214
5.2210 2.3843 0.4208
5.2648 2.6354 0.4317
5.3099 2.1994 0.5518
5.2210 2.3843 0.5510
5.3099 2.1994 0.6827
5.2210 2.3843 0.6818
5.2757 2.6408 0.7008
5.3099 2.1994 0.8143
5.2210 2.3843 0.8132
5.3099 2.1994 0.9468
5.2280 2.3876 0.9468
5.3099 2.1994 1.0803
5.3099 2.1994 1.2149
5.3099 2.1994 1.3508
5.3099 2.1994 1.4881
0.9060 3.5496 0.9485
0.7788 3.5802 0.9486
0.6506 3.6061 0.9488
0.5215 3.6274 0.9489
0.3918 3.6441 0.9490
0.2615 3.6561 0.9490
0.1308 3.6634 0.9491
5.3099 2.1994 1.6271
0.8281 3.2443 0.9479
0.7118 3.2722 0.9480
0.5946 3.2959 0.9481
0.4767 3.3154 0.9482
0.3581 3.3306 0.9483
0.2390 3.3415 0.9484
0.1196 3.3481 0.9484
5.3099 2.1994 1.7678
0.8676 2.9549 0.9472
0.7617 2.9844 0.9474
0.6548 3.0100 0.9475
0.5470 3.0317 0.9476
0.4385 3.0496 0.9476
0.3294 3.0636 0.9477
0.2198 3.0736 0.9478
0.1100 3.0797 0.9479
5.3099 2.1994 1.9105
0.8994 2.7022 0.9467
0.8025 2.7329 0.9468
0.7045 2.7601 0.9469
0.6056 2.7838 0.9470
0.5059 2.8039 0.9471
0.4055 2.8204 0.9472
0.3046 2.8333 0.9472
0.2033 2.8426 0.9473
0.1017 2.8482 0.9474
5.4045 -5.4045 2.7332
5.3099 2.1994 2.0553
0.9246 2.4790 0.9462
0.8357 2.5108 0.9463
0.7456 2.5393 0.9464
0.6546 2.5645 0.9465
0.5627 2.5865 0.9466
0.4700 2.6051 0.9467
0.3768 2.6205 0.9467
0.2830 2.6324 0.9468
0.1889 2.6410 0.9469
0.0945 2.6462 0.9469
2.8411 -8.5361 3.4476
3.1440 -8.4293 3.4476
3.4434 -8.3131 3.4482
3.7387 -8.1867 3.4490
4.0294 -8.0498 3.4497
4.3151 -7.9025 3.4504
4.5954 -7.7450 3.4512
4.8699 -7.5776 3.4519
5.1252 -7.3818 3.4438
5.3864 -7.1953 3.4444
5.6400 -6.9988 3.4445
5.8864 -6.7933 3.4447
6.1254 -6.5791 3.4448
5.4045 -5.4045 2.9290
6.5798 -6.1260 3.4452
6.7946 -5.8875 3.4453
7.0007 -5.6415 3.4455
5.4196 -4.0571 2.5944
7.3862 -5.1283 3.4459
7.5649 -4.8617 3.4461
7.7341 -4.5889 3.4463
7.8935 -4.3102 3.4465
8.0428 -4.0259 3.4467
8.1819 -3.7366 3.4470
8.3107 -3.4424 3.4472
8.4289 -3.1438 3.4475
8.5364 -2.8412 3.4477
8.6330 -2.5349 3.4480
8.7187 -2.2253 3.4483
8.7933 -1.9129 3.4486
8.8567 -1.5979 3.4488
8.9088 -1.2809 3.4491
8.9497 -0.9622 3.4494
8.9791 -0.6422 3.4497
8.9971 -0.3213 3.4501
9.0037 0.0000 3.4504
8.9988 0.3214 3.4507
8.9824 0.6424 3.4510
8.9546 0.9627 3.4513
8.9154 1.2818 3.4517
8.8648 1.5994 3.4520
8.8018 1.9147 3.4519
8.7265 2.2273 3.4514
8.6402 2.5370 3.4508
8.5428 2.8433 3.4503
8.4346 3.1459 3.4498
5.3099 2.1994 2.2025
8.1870 3.7389 3.4491
8.0476 4.0283 3.4488
7.8980 4.3126 3.4485
7.7383 4.5913 3.4482
7.5689 4.8642 3.4479
7.3899 5.1309 3.4476
0.8625 2.3125 0.9458
0.7795 2.3421 0.9459
0.6955 2.3687 0.9460
0.6106 2.3922 0.9461
0.5249 2.4127 0.9462
0.4384 2.4301 0.9463
0.3514 2.4444 0.9464
0.2640 2.4555 0.9464
0.1762 2.4635 0.9465
0.0882 2.4684 0.9465
0.0000 -8.7960 3.6000
0.3140 -8.7904 3.6000
0.6275 -8.7736 3.6000
0.9403 -8.7456 3.6000
1.2518 -8.7065 3.6000
1.5618 -8.6563 3.6000
1.8697 -8.5950 3.6000
2.1753 -8.5228 3.6000
2.4781 -8.4397 3.6000
2.7086 -8.1380 3.5103
2.9438 -7.8926 3.4476
3.2237 -7.7827 3.4477
3.5001 -7.6642 3.4484
3.7722 -7.5359 3.4491
4.0396 -7.3980 3.4498
4.3019 -7.2505 3.4505
4.5588 -7.0937 3.4511
4.8100 -6.9277 3.4518
5.0447 -6.7390 3.4453
5.2817 -6.5542 3.4451
5.5125 -6.3618 3.4452
5.7363 -6.1612 3.4454
5.4045 -5.4045 3.1281
6.1618 -5.7368 3.4457
6.3630 -5.5135 3.4458
6.5560 -5.2832 3.4460
6.7407 -5.0460 3.4462
6.9169 -4.8025 3.4464
7.0843 -4.5528 3.4465
7.2427 -4.2973 3.4467
7.3919 -4.0363 3.4469
7.5317 -3.7701 3.4472
7.6620 -3.4991 3.4474
7.7825 -3.2236 3.4476
7.8931 -2.9440 3.4478
7.9937 -2.6606 3.4481
8.0842 -2.3737 3.4483
8.1644 -2.0838 3.4486
8.2342 -1.7912 3.4489
8.2935 -1.4963 3.4491
8.3423 -1.1994 3.4494
8.3805 -0.9010 3.4497
8.4080 -0.6014 3.4500
8.4248 -0.3009 3.4503
8.4309 0.0000 3.4506
8.4263 0.3009 3.4509
8.4109 0.6016 3.4512
8.3848 0.9015 3.4515
8.3481 1.2003 3.4518
8.3006 1.4976 3.4521
8.2416 1.7928 3.4520
8.1711 2.0856 3.4515
8.0903 2.3755 3.4510
7.9993 2.6624 3.4505
7.8980 2.9458 3.4500
5.3099 2.1994 2.3523
7.6661 3.5010 3.4492
7.5356 3.7720 3.4489
7.3955 4.0383 3.4486
7.2445 4.2983 3.4476
7.0864 4.5542 3.4476
6.9194 4.8042 3.4476
6.7435 5.0481 3.4476
6.8489 5.5192 3.6000
6.6476 5.7602 3.6000
6.4377 5.9938 3.6000
6.2197 6.2197 3.6000
5.9938 6.4378 3.6000
5.7602 6.6476 3.6000
5.5192 6.8490 3.6000
5.2713 7.0416 3.6000
5.0166 7.2252 3.6000
4.7555 7.3997 3.6000
4.4883 7.5648 3.6000
4.2155 7.7201 3.6000
3.9372 7.8656 3.6000
3.6540 8.0011 3.6000
0.8840 2.1342 0.9454
0.8074 2.1646 0.9455
0.7297 2.1923 0.9456
0.6510 2.2171 0.9457
0.5715 2.2392 0.9458
0.4913 2.2583 0.9459
0.4104 2.2746 0.9460
0.3290 2.2880 0.9460
0.2471 2.2984 0.9461
0.1649 2.3059 0.9461
0.0825 2.3104 0.9462
0.0000 -8.2604 3.6000
0.2948 -8.2551 3.6000
0.5893 -8.2393 3.6000
0.8830 -8.2130 3.6000
1.1756 -8.1763 3.6000
1.4667 -8.1291 3.6000
1.7559 -8.0715 3.6000
2.0428 -8.0038 3.6000
2.3272 -7.9258 3.6000
2.6086 -7.8376 3.6000
2.7645 -7.4119 3.4476
3.0273 -7.3086 3.4476
3.2865 -7.1964 3.4479
3.5419 -7.0759 3.4486
3.7929 -6.9463 3.4492
4.0392 -6.8077 3.4498
4.2804 -6.6604 3.4505
4.5162 -6.5045 3.4511
4.7463 -6.3403 3.4517
4.9653 -6.1614 3.4487
5.1775 -5.9747 3.4457
5.3877 -5.7868 3.4458
5.4045 -5.4045 3.3310
5.7873 -5.3882 3.4461
5.9762 -5.1784 3.4463
6.1575 -4.9620 3.4465
6.3310 -4.7393 3.4466
6.4965 -4.5106 3.4468
6.6537 -4.2760 3.4470
6.8024 -4.0361 3.4472
6.9425 -3.7909 3.4473
7.0738 -3.5409 3.4475
7.1961 -3.2864 3.4478
7.3093 -3.0276 3.4480
7.4132 -2.7650 3.4482
7.5076 -2.4988 3.4484
7.5926 -2.2294 3.4487
7.6678 -1.9571 3.4489
7.7334 -1.6823 3.4492
7.7891 -1.4053 3.4494
7.8348 -1.1265 3.4497
7.8707 -0.8462 3.4499
7.8965 -0.5648 3.4502
7.9122 -0.2826 3.4505
7.9179 0.0000 3.4507
7.9135 0.2826 3.4510
7.8990 0.5649 3.4513
7.8745 0.8466 3.4516
7.8399 1.1272 3.4519
7.7953 1.4064 3.4522
7.7397 1.6837 3.4520
7.6737 1.9586 3.4515
7.5978 2.2309 3.4511
7.5124 2.5004 3.4506
7.4174 2.7665 3.4501
5.3099 2.1994 2.5048
7.1958 3.2862 3.4476
7.0739 3.5409 3.4476
6.9430 3.7912 3.4476
6.8033 4.0366 3.4476
6.6548 4.2768 3.4476
6.4980 4.5116 3.4476
6.3328 4.7407 3.4476
6.1595 4.9637 3.4476
6.2427 5.4094 3.6000
6.0457 5.6287 3.6000
5.8409 5.8409 3.6000
5.6287 6.0457 3.6000
5.4094 6.2427 3.6000
5.1831 6.4318 3.6000
4.9502 6.6127 3.6000
4.7111 6.7852 3.6000
4.4659 6.9491 3.6000
4.2150 7.1040 3.6000
3.9588 7.2499 3.6000
3.6975 7.3866 3.6000
0.9008 1.9726 0.9451
0.8300 2.0037 0.9452
0.7580 2.0322 0.9453
0.6850 2.0582 0.9454
0.6112 2.0815 0.9455
0.5365 2.1022 0.9455
0.4612 2.1201 0.9456
0.3853 2.1354 0.9457
0.3088 2.1479 0.9457
0.2320 2.1577 0.9458
0.1548 2.1647 0.9458
0.0775 2.1690 0.9459
-0.0000 -7.7773 3.6000
0.2776 -7.7724 3.6000
0.5548 -7.7575 3.6000
0.8314 -7.7327 3.6000
1.1068 -7.6981 3.6000
1.3809 -7.6537 3.6000
1.6532 -7.5996 3.6000
1.9234 -7.5357 3.6000
2.1911 -7.4623 3.6000
2.4561 -7.3793 3.6000
2.6971 -7.2311 3.5724
2.8503 -6.8811 3.4476
3.0941 -6.7751 3.4476
3.3343 -6.6612 3.4481
3.5706 -6.5391 3.4487
3.8024 -6.4086 3.4493
4.0294 -6.2698 3.4499
4.2513 -6.1230 3.4504
4.4679 -5.9684 3.4510
4.6788 -5.8060 3.4515
4.8838 -5.6362 3.4521
5.0727 -5.4485 3.4459
5.2647 -5.2647 3.4464
5.4495 -5.0737 3.4465
5.4075 -4.6857 3.3120
5.7981 -4.6724 3.4468
5.9615 -4.4627 3.4470
6.1173 -4.2473 3.4472
6.2653 -4.0264 3.4474
6.4053 -3.8004 3.4475
6.5372 -3.5696 3.4477
6.6608 -3.3342 3.4479
6.7760 -3.0945 3.4481
5.3943 -2.2344 2.7027
6.9803 -2.6035 3.4485
5.3856 -1.7925 2.6274
5.3845 -1.5810 2.5976
7.2200 -1.8428 3.4492
7.2817 -1.5840 3.4494
7.3341 -1.3232 3.4496
7.3772 -1.0607 3.4499
7.4109 -0.7968 3.4501
7.4351 -0.5318 3.4504
7.4499 -0.2661 3.4507
7.4552 0.0000 3.4509
7.4510 0.2661 3.4512
7.4374 0.5319 3.4514
7.4142 0.7971 3.4517
7.3816 1.0613 3.4520
7.3396 1.3242 3.4523
7.2872 1.5852 3.4520
7.2251 1.8441 3.4516
5.3777 1.5791 2.5944
5.3669 1.7863 2.6182
5.3721 2.0037 2.6540
5.3099 2.1994 2.6604
6.7755 3.0943 3.4479
6.6602 3.3339 3.4476
6.5370 3.5695 3.4476
6.4054 3.8005 3.4476
6.2657 4.0267 3.4476
6.1180 4.2478 3.4476
5.9625 4.4634 3.4476
5.7993 4.6734 3.4476
5.6289 4.8774 3.4476
5.6921 5.2996 3.6000
5.4994 5.4994 3.6000
5.2996 5.6922 3.6000
5.0930 5.8777 3.6000
4.8800 6.0557 3.6000
4.6608 6.2260 3.6000
4.4356 6.3885 3.6000
4.2047 6.5427 3.6000
3.9685 6.6886 3.6000
3.7273 6.8260 3.6000
0.9136 1.8251 0.9448
0.8480 1.8568 0.9449
0.7812 1.8860 0.9450
0.7135 1.9129 0.9450
0.6448 1.9373 0.9451
0.5753 1.9593 0.9452
0.5050 1.9787 0.9453
0.4341 1.9956 0.9453
0.3626 2.0100 0.9454
0.2907 2.0218 0.9455
0.2184 2.0310 0.9455
0.1457 2.0376 0.9456
0.0729 2.0416 0.9456
-0.0000 -7.3391 3.6000
0.2620 -7.3344 3.6000
0.5236 -7.3204 3.6000
0.7845 -7.2970 3.6000
1.0445 -7.2644 3.6000
1.3031 -7.2225 3.6000
1.5600 -7.1714 3.6000
1.8150 -7.1111 3.6000
2.0677 -7.0418 3.6000
2.3177 -6.9635 3.6000
2.5648 -6.8764 3.6000
2.7143 -6.5528 3.4792
2.9197 -6.3933 3.4476
3.1461 -6.2851 3.4476
3.3690 -6.1698 3.4482
3.5876 -6.0466 3.4488
3.8017 -5.9156 3.4493
4.0111 -5.7771 3.4499
4.2154 -5.6311 3.4504
4.4143 -5.4778 3.4509
4.6077 -5.3176 3.4514
4.7952 -5.1504 3.4519
4.9712 -4.9712 3.4485
5.1430 -4.7883 3.4469
5.3109 -4.6019 3.4470
5.4720 -4.4096 3.4472
5.4042 -4.0455 3.3114
5.7731 -4.0084 3.4475
5.9128 -3.7999 3.4477
6.0450 -3.5867 3.4479
6.1695 -3.3688 3.4480
6.2861 -3.1466 3.4482
6.3948 -2.9204 3.4484
6.4953 -2.6904 3.4486
6.5875 -2.4570 3.4488
6.6714 -2.2205 3.4490
6.7469 -1.9811 3.4492
6.8137 -1.7391 3.4494
6.8719 -1.4949 3.4496
6.9213 -1.2487 3.4499
6.9619 -1.0010 3.4501
6.9937 -0.7519 3.4503
7.0165 -0.5018 3.4506
7.0305 -0.2511 3.4508
7.0355 0.0000 3.4511
7.0315 0.2511 3.4513
7.0186 0.5020 3.4516
6.9967 0.7522 3.4518
6.9659 1.0015 3.4521
6.9262 1.2496 3.4523
6.8767 1.4959 3.4521
6.8181 1.7402 3.4516
6.7508 1.9822 3.4512
5.3732 1.7884 2.7779
6.5907 2.4582 3.4504
5.3099 2.1994 2.8192
6.3937 2.9199 3.4478
6.2850 3.1460 3.4476
6.1687 3.3683 3.4476
6.0445 3.5864 3.4476
5.9127 3.7998 3.4476
5.7733 4.0084 3.4476
5.6265 4.2120 3.4476
5.4726 4.4101 3.4476
5.3117 4.6026 3.4476
5.3714 5.0010 3.6000
5.1895 5.1895 3.6000
5.0010 5.3715 3.6000
4.8061 5.5465 3.6000
4.6050 5.7145 3.6000
4.3981 5.8753 3.6000
4.1856 6.0285 3.6000
3.9678 6.1740 3.6000
3.7449 6.3117 3.6000
3.5172 6.4414 3.6000
0.8619 1.7219 0.9446
0.8000 1.7518 0.9446
0.7370 1.7794 0.9447
0.6731 1.8047 0.9448
0.6083 1.8277 0.9449
0.5427 1.8484 0.9450
0.4765 1.8668 0.9450
0.4096 1.8827 0.9451
0.3421 1.8962 0.9452
0.2742 1.9074 0.9452
0.2060 1.9160 0.9453
0.1375 1.9223 0.9453
0.0688 1.9260 0.9454
0.0000 -6.9394 3.6000
0.2477 -6.9349 3.6000
0.4951 -6.9217 3.6000
0.7418 -6.8996 3.6000
0.9876 -6.8687 3.6000
1.2321 -6.8291 3.6000
1.4751 -6.7808 3.6000
1.7162 -6.7238 3.6000
1.9551 -6.6583 3.6000
2.1914 -6.5843 3.6000
2.4251 -6.5018 3.6000
2.6556 -6.4111 3.6000
2.7607 -6.0450 3.4476
2.9747 -5.9427 3.4476
3.1851 -5.8330 3.4478
3.3918 -5.7165 3.4483
3.5942 -5.5926 3.4488
3.7920 -5.4616 3.4493
3.9851 -5.3235 3.4498
4.1732 -5.1786 3.4503
4.3560 -5.0271 3.4508
4.5332 -4.8690 3.4512
4.7047 -4.7047 3.4517
4.8703 -4.5344 3.4521
5.0218 -4.3516 3.4472
5.1744 -4.1698 3.4475
5.3202 -3.9826 3.4477
5.4592 -3.7904 3.4478
5.5913 -3.5933 3.4480
5.7162 -3.3916 3.4482
5.8339 -3.1856 3.4483
5.9442 -2.9755 3.4485
6.0469 -2.7615 3.4487
6.1420 -2.5441 3.4489
6.2292 -2.3234 3.4490
6.3085 -2.0997 3.4492
5.3909 -1.5829 2.9147
6.4430 -1.6445 3.4496
6.4980 -1.4135 3.4499
6.5447 -1.1808 3.4501
6.5831 -0.9465 3.4503
6.6131 -0.7110 3.4505
6.6347 -0.4745 3.4507
6.6478 -0.2374 3.4510
6.6525 0.0000 3.4512
6.6487 0.2375 3.4514
6.6365 0.4747 3.4517
6.6158 0.7113 3.4519
6.5866 0.9470 3.4522
6.5491 1.1816 3.4524
5.3855 1.1715 2.8592
5.3879 1.3752 2.8847
6.3833 1.8743 3.4513
6.3116 2.1007 3.4509
6.2307 2.3239 3.4499
5.3099 2.1994 2.9816
6.0453 2.7608 3.4477
5.9426 2.9747 3.4476
5.8327 3.1849 3.4476
5.7153 3.3910 3.4476
5.5906 3.5929 3.4476
5.4588 3.7901 3.4476
5.3201 3.9825 3.4476
5.1745 4.1699 3.4476
5.0224 4.3519 3.4476
4.8639 4.5284 3.4476
4.9069 4.9069 3.6000
4.7286 5.0789 3.6000
4.5443 5.2444 3.6000
4.3542 5.4033 3.6000
4.1586 5.5553 3.6000
3.9577 5.7001 3.6000
3.7517 5.8378 3.6000
3.5409 5.9679 3.6000
0.8723 1.5975 0.9443
0.8148 1.6278 0.9444
0.7563 1.6560 0.9445
0.6968 1.6821 0.9445
0.6363 1.7061 0.9446
0.5751 1.7278 0.9447
0.5131 1.7474 0.9448
0.4504 1.7647 0.9448
0.3872 1.7798 0.9449
0.3234 1.7926 0.9450
0.2592 1.8031 0.9450
0.1947 1.8112 0.9451
0.1300 1.8171 0.9451
0.0650 1.8207 0.9451
-0.0000 -6.5729 3.6000
0.2346 -6.5687 3.6000
0.4689 -6.5562 3.6000
0.7026 -6.5352 3.6000
0.9354 -6.5060 3.6000
1.1670 -6.4685 3.6000
1.3972 -6.4227 3.6000
1.6255 -6.3687 3.6000
1.8518 -6.3066 3.6000
2.0757 -6.2365 3.6000
2.2970 -6.1585 3.6000
2.5153 -6.0726 3.6000
2.6995 -5.9111 3.5592
2.8176 -5.6288 3.4476
3.0167 -5.5247 3.4476
3.2122 -5.4139 3.4479
3.4039 -5.2966 3.4484
3.5913 -5.1724 3.4489
3.7741 -5.0416 3.4493
3.9522 -4.9044 3.4498
4.1253 -4.7608 3.4502
4.2931 -4.6111 3.4507
4.4555 -4.4555 3.4511
4.6122 -4.2941 3.4515
4.7631 -4.1272 3.4519
4.9072 -3.9545 3.4518
5.0393 -3.7724 3.4477
5.1713 -3.5905 3.4481
5.2964 -3.4038 3.4483
5.4148 -3.2127 3.4484
5.5263 -3.0176 3.4486
5.6307 -2.8185 3.4488
5.7280 -2.6159 3.4489
5.8180 -2.4099 3.4491
5.9007 -2.2008 3.4493
5.9758 -1.9889 3.4495
6.0433 -1.7745 3.4497
6.1031 -1.5577 3.4499
6.1552 -1.3390 3.4500
6.1994 -1.1185 3.4503
6.2357 -0.8966 3.4505
6.2642 -0.6735 3.4507
6.2846 -0.4495 3.4509
6.2970 -0.2249 3.4511
6.3014 0.0000 3.4513
6.2978 0.2249 3.4515
6.2862 0.4496 3.4518
6.2666 0.6737 3.4520
6.2389 0.8970 3.4522
6.2034 1.1192 3.4525
6.1589 1.3398 3.4521
5.3754 1.3720 3.0385
5.3743 1.5781 3.0678
5.9779 1.9896 3.4507
5.9010 2.2010 3.4495
5.3099 2.1994 3.1479
5.7258 2.6149 3.4476
5.6288 2.8176 3.4476
5.5247 3.0167 3.4476
5.4135 3.2120 3.4476
5.2954 3.4031 3.4476
5.1705 3.5900 3.4476
5.0391 3.7722 3.4476
4.9013 3.9497 3.4476
4.7572 4.1221 3.4476
4.6070 4.2893 3.4476
4.6477 4.6477 3.6000
4.4789 4.8107 3.6000
4.3043 4.9675 3.6000
4.1243 5.1179 3.6000
3.9390 5.2619 3.6000
3.7487 5.3991 3.6000
3.5536 5.5295 3.6000
0.8795 1.4823 0.9440
0.8261 1.5129 0.9441
0.7717 1.5416 0.9442
0.7162 1.5683 0.9443
0.6598 1.5930 0.9444
0.6026 1.6156 0.9444
0.5446 1.6362 0.9445
0.4859 1.6548 0.9446
0.4265 1.6712 0.9446
0.3666 1.6854 0.9447
0.3063 1.6975 0.9448
0.2455 1.7075 0.9448
0.1844 1.7152 0.9448
0.1231 1.7208 0.9449
0.0616 1.7241 0.9449
0.0000 -6.2354 3.6000
0.2226 -6.2314 3.6000
0.4448 -6.2195 3.6000
0.6665 -6.1997 3.6000
0.8874 -6.1719 3.6000
1.1071 -6.1363 3.6000
1.3254 -6.0929 3.6000
1.5421 -6.0417 3.6000
1.7567 -5.9829 3.6000
1.9691 -5.9163 3.6000
2.1790 -5.8422 3.6000
2.3862 -5.7607 3.6000
2.5903 -5.6719 3.6000
2.7111 -5.4160 3.4968
2.8618 -5.2410 3.4476
3.0471 -5.1355 3.4476
3.2287 -5.0240 3.4480
3.4064 -4.9062 3.4484
3.5798 -4.7821 3.4489
3.7487 -4.6519 3.4493
3.9129 -4.5157 3.4497
4.0720 -4.3737 3.4501
4.2260 -4.2260 3.4505
4.3747 -4.0729 3.4509
4.5177 -3.9146 3.4513
4.6551 -3.7513 3.4517
4.7865 -3.5831 3.4520
4.9107 -3.4095 3.4516
5.0245 -3.2290 3.4483
5.1371 -3.0480 3.4487
5.2428 -2.8628 3.4488
5.3419 -2.6740 3.4490
5.4342 -2.4817 3.4491
5.5196 -2.2863 3.4493
5.3935 -2.0117 3.3235
5.6693 -1.8869 3.4497
5.7333 -1.6834 3.4499
5.7900 -1.4778 3.4500
5.3887 -1.1722 3.1839
5.8813 -1.0611 3.4504
5.9158 -0.8506 3.4506
5.9427 -0.6389 3.4508
5.9621 -0.4264 3.4510
5.9739 -0.2134 3.4512
5.9781 0.0000 3.4514
5.9746 0.2134 3.4516
5.9636 0.4265 3.4519
5.9449 0.6391 3.4521
5.9187 0.8510 3.4523
5.3775 0.9702 3.1548
5.8427 1.2710 3.4521
5.7930 1.4786 3.4518
5.7358 1.6842 3.4514
5.6701 1.8872 3.4502
5.3725 2.0039 3.3106
5.3099 2.1994 3.3183
5.4318 2.4806 3.4476
5.3398 2.6729 3.4476
5.2410 2.8618 3.4476
5.1355 3.0470 3.4476
5.0235 3.2284 3.4476
4.9050 3.4056 3.4476
4.7803 3.5785 3.4476
4.6496 3.7469 3.4476
4.5129 3.9104 3.4476
4.3704 4.0690 3.4476
4.4091 4.4091 3.6000
4.2489 4.5636 3.6000
4.0833 4.7124 3.6000
3.9125 4.8551 3.6000
3.7367 4.9917 3.6000
3.5562 5.1219 3.6000
0.8838 1.3752 0.9438
0.8342 1.4060 0.9439
0.7836 1.4350 0.9440
0.7319 1.4622 0.9440
0.6793 1.4875 0.9441
0.6258 1.5109 0.9442
0.5716 1.5324 0.9443
0.5165 1.5519 0.9443
0.4608 1.5695 0.9444
0.4046 1.5850 0.9445
0.3477 1.5986 0.9445
0.2905 1.6100 0.9446
0.2328 1.6195 0.9446
0.1749 1.6268 0.9447
0.1167 1.6321 0.9447
0.0584 1.6353 0.9447
